<svg id="Layer_1" data-name="Layer 1" xmlns="http://www.w3.org/2000/svg" xmlns:xlink="http://www.w3.org/1999/xlink" viewBox="0 0 449.97 472.3"><defs><style>.cls-1{fill:url(#linear-gradient);}.cls-2{fill:url(#linear-gradient-2);}.cls-3{fill:url(#linear-gradient-3);}.cls-4{fill:url(#linear-gradient-4);}.cls-5{fill:#b0d236;}.cls-6{fill:url(#linear-gradient-5);}.cls-7{fill:url(#linear-gradient-6);}.cls-8{fill:url(#Dégradé_sans_nom_21);}.cls-9{fill:url(#Dégradé_sans_nom_21-2);}.cls-10{fill:url(#Dégradé_sans_nom_21-3);}.cls-11{fill:url(#Dégradé_sans_nom_21-4);}.cls-12{fill:url(#Dégradé_sans_nom_21-5);}.cls-13{fill:url(#Dégradé_sans_nom_21-6);}.cls-14{fill:url(#Dégradé_sans_nom_3);}.cls-15{fill:url(#Or);}.cls-16{fill:url(#Dégradé_sans_nom_12);}.cls-17{fill:url(#Dégradé_sans_nom_21-7);}.cls-18{fill:url(#Dégradé_sans_nom_21-8);}.cls-19{fill:url(#Dégradé_sans_nom_21-9);}.cls-20{fill:url(#Dégradé_sans_nom_21-10);}.cls-21{fill:url(#Dégradé_sans_nom_21-11);}.cls-22{fill:url(#Dégradé_sans_nom_21-12);}.cls-23{fill:url(#Dégradé_sans_nom_21-13);}</style><linearGradient id="linear-gradient" x1="315.46" y1="115.73" x2="305.06" y2="244.02" gradientUnits="userSpaceOnUse"><stop offset="0" stop-color="#f3ea05"/><stop offset="0.44" stop-color="#7b9624"/><stop offset="1" stop-color="#d7df25"/></linearGradient><linearGradient id="linear-gradient-2" x1="63.97" y1="193.21" x2="247.31" y2="193.21" xlink:href="#linear-gradient"/><linearGradient id="linear-gradient-3" x1="77.62" y1="194.36" x2="244.29" y2="194.36" gradientUnits="userSpaceOnUse"><stop offset="0" stop-color="#7b9624"/><stop offset="1" stop-color="#d7df25"/></linearGradient><linearGradient id="linear-gradient-4" x1="260.79" y1="175.61" x2="363.39" y2="175.61" gradientUnits="userSpaceOnUse"><stop offset="0" stop-color="#d9e023"/><stop offset="0.44" stop-color="#7b9624"/><stop offset="1" stop-color="#d7df25"/></linearGradient><linearGradient id="linear-gradient-5" x1="199.86" y1="68.76" x2="272.31" y2="68.76" xlink:href="#linear-gradient-4"/><linearGradient id="linear-gradient-6" x1="203.7" y1="79.81" x2="265.44" y2="79.81" xlink:href="#linear-gradient-3"/><linearGradient id="Dégradé_sans_nom_21" x1="2057.23" y1="6846.65" x2="2236.42" y2="6846.65" gradientTransform="translate(2264.44 7301.84) rotate(180)" gradientUnits="userSpaceOnUse"><stop offset="0.05" stop-color="#bb922e"/><stop offset="0.51" stop-color="#fff7ac"/><stop offset="1" stop-color="#c49e2e"/></linearGradient><linearGradient id="Dégradé_sans_nom_21-2" x1="2238.26" y1="6846.4" x2="2242.35" y2="6846.4" xlink:href="#Dégradé_sans_nom_21"/><linearGradient id="Dégradé_sans_nom_21-3" x1="2243.76" y1="6846.48" x2="2260.04" y2="6846.48" xlink:href="#Dégradé_sans_nom_21"/><linearGradient id="Dégradé_sans_nom_21-4" x1="-7416.06" y1="6846.65" x2="-7236.93" y2="6846.65" gradientTransform="matrix(1, 0, 0, -1, 7658.88, 7301.84)" xlink:href="#Dégradé_sans_nom_21"/><linearGradient id="Dégradé_sans_nom_21-5" x1="-7235.09" y1="6846.4" x2="-7231" y2="6846.4" gradientTransform="matrix(1, 0, 0, -1, 7658.88, 7301.84)" xlink:href="#Dégradé_sans_nom_21"/><linearGradient id="Dégradé_sans_nom_21-6" x1="-7229.59" y1="6846.48" x2="-7213.31" y2="6846.48" gradientTransform="matrix(1, 0, 0, -1, 7658.88, 7301.84)" xlink:href="#Dégradé_sans_nom_21"/><radialGradient id="Dégradé_sans_nom_3" cx="2039.1" cy="6846.44" r="11" gradientTransform="translate(2264.44 7301.84) rotate(180)" gradientUnits="userSpaceOnUse"><stop offset="0.01" stop-color="#b0764e"/><stop offset="0.29" stop-color="#dec99b"/><stop offset="0.51" stop-color="#edd089"/><stop offset="0.91" stop-color="#7c5334"/></radialGradient><linearGradient id="Or" x1="2023.73" y1="6846.44" x2="2054.42" y2="6846.44" gradientTransform="translate(2264.44 7301.84) rotate(180)" gradientUnits="userSpaceOnUse"><stop offset="0.01" stop-color="#fbc926"/><stop offset="0.25" stop-color="#fffbcc"/><stop offset="0.3" stop-color="#f8f0bb"/><stop offset="0.41" stop-color="#e7d28e"/><stop offset="0.55" stop-color="#cca246"/><stop offset="0.6" stop-color="#c3922e"/><stop offset="0.87" stop-color="#eed688"/><stop offset="1" stop-color="#fffbcc"/></linearGradient><radialGradient id="Dégradé_sans_nom_12" cx="2039.07" cy="6846.44" r="2.42" gradientTransform="translate(2264.44 7301.84) rotate(180)" gradientUnits="userSpaceOnUse"><stop offset="0" stop-color="#501b13"/><stop offset="1" stop-color="#38150f"/></radialGradient><linearGradient id="Dégradé_sans_nom_21-7" x1="45.84" y1="339.64" x2="49.02" y2="435.02" gradientTransform="matrix(1, 0, 0, 1, 0, 0)" xlink:href="#Dégradé_sans_nom_21"/><linearGradient id="Dégradé_sans_nom_21-8" x1="128.19" y1="336.89" x2="131.37" y2="432.27" gradientTransform="matrix(1, 0, 0, 1, 0, 0)" xlink:href="#Dégradé_sans_nom_21"/><linearGradient id="Dégradé_sans_nom_21-9" x1="182.96" y1="335.07" x2="186.14" y2="430.45" gradientTransform="matrix(1, 0, 0, 1, 0, 0)" xlink:href="#Dégradé_sans_nom_21"/><linearGradient id="Dégradé_sans_nom_21-10" x1="262.17" y1="332.43" x2="265.35" y2="427.81" gradientTransform="matrix(1, 0, 0, 1, 0, 0)" xlink:href="#Dégradé_sans_nom_21"/><linearGradient id="Dégradé_sans_nom_21-11" x1="318.13" y1="330.56" x2="321.31" y2="425.94" gradientTransform="matrix(1, 0, 0, 1, 0, 0)" xlink:href="#Dégradé_sans_nom_21"/><linearGradient id="Dégradé_sans_nom_21-12" x1="383.97" y1="328.37" x2="387.15" y2="423.75" gradientTransform="matrix(1, 0, 0, 1, 0, 0)" xlink:href="#Dégradé_sans_nom_21"/><linearGradient id="Dégradé_sans_nom_21-13" x1="434.92" y1="326.67" x2="438.1" y2="422.05" gradientTransform="matrix(1, 0, 0, 1, 0, 0)" xlink:href="#Dégradé_sans_nom_21"/></defs><title>Logo Mor Thai </title><path class="cls-1" d="M354.58,118.32c-38.53,6.39-53.38,13.81-69.8,34,30-33.32,54.78-14.73,54.78-14.73,3.76,87.84-75.9,107.15-75.9,107.15C367.52,232.69,354.58,118.32,354.58,118.32Z"/><path class="cls-2" d="M247.31,287.48C224.09,101.4,64,98.93,64,98.93c0,74.8,38.91,123.12,68.55,149.07-24-23.13-34.91-51.26-39.77-74.8-3.87-1.92-5.47-6.41-4.78-10.45a10.77,10.77,0,0,1-.43-9.29,9.38,9.38,0,0,1-3.11-6.92c0-.36,0-.71,0-1.07a9.17,9.17,0,0,1-.46-2.72v-2.84a9.51,9.51,0,0,1,5.23-8.39c.17-4.27.46-6.71.46-6.71C227.76,144.53,247.31,287.48,247.31,287.48Z"/><path class="cls-3" d="M240.59,258.83c-1.92-6.93-2.06-14.18-4.35-21.18a11.19,11.19,0,0,1-.36-1.42c-22.06-45-67.63-103.7-158-117.11,0,0-9.53,92.41,81.72,150.49,0,0-66.73-52.81-73.54-133.33C86.08,136.28,182.65,147.45,240.59,258.83Z"/><path class="cls-4" d="M363.39,104.62C324.86,111,298.32,134,281.91,154.19c30-33.32,66.47-30.32,66.47-30.32,3.76,87.84-87.59,122.73-87.59,122.73C364.65,234.57,363.39,104.62,363.39,104.62Z"/><path class="cls-5" d="M250.28,166.4a13.52,13.52,0,1,1-13.51-13.53A13.51,13.51,0,0,1,250.28,166.4Z"/><path class="cls-6" d="M235.44,1.62S175.5,40.89,211.21,135.89c0,0-20.41-84.87,24.23-107.67,0,0,38.26,44.33,24.23,107.67C259.67,135.89,300.47,62.42,235.44,1.62Z"/><path class="cls-7" d="M261.76,129.5s10.87-79.78-33.95-96.78c0,0-28.51,39.23-16.3,104.62,0,0-25.79-64.08,16.3-115.08C227.81,22.26,279.42,28.8,261.76,129.5Z"/><path class="cls-8" d="M52.7,457.36c53.26.12,136.63,0,146.27,0h8.24V453h-7.49s-93-.06-146.34.07c-8.46,0-16.91.9-25.37,1.39q0,.82,0,1.63C36.25,456.52,44.48,457.34,52.7,457.36Z"/><ellipse class="cls-9" cx="24.14" cy="455.44" rx="2.05" ry="1.92"/><path class="cls-10" d="M4.4,455.38l.78.78a21,21,0,0,0,6.26,5,6.34,6.34,0,0,0,1.18.44l.14.05.11,0a6.22,6.22,0,0,0,1.34.16,6.42,6.42,0,0,0,3.62-1.11,6.5,6.5,0,0,0,2.85-5.39h0a6.48,6.48,0,0,0-6.47-6.5,6.22,6.22,0,0,0-1.34.16l-.11,0-.14.05a6.34,6.34,0,0,0-1.18.44,21,21,0,0,0-6.26,5l-.78.78,0,0Z"/><path class="cls-11" d="M397.27,457.36c-53.26.12-136.57,0-146.21,0h-8.24V453h7.49s93-.06,146.28.07c8.46,0,16.91.9,25.37,1.39q0,.82,0,1.63C413.72,456.52,405.49,457.34,397.27,457.36Z"/><ellipse class="cls-12" cx="425.83" cy="455.44" rx="2.05" ry="1.92"/><path class="cls-13" d="M445.57,455.38l-.78.78a21,21,0,0,1-6.26,5,6.34,6.34,0,0,1-1.18.44l-.14.05-.11,0a6.22,6.22,0,0,1-1.34.16,6.42,6.42,0,0,1-3.62-1.11,6.5,6.5,0,0,1-2.85-5.39h0a6.48,6.48,0,0,1,6.47-6.5,6.22,6.22,0,0,1,1.34.16l.11,0,.14.05a6.34,6.34,0,0,1,1.18.44,21,21,0,0,1,6.26,5l.78.78,0,0Z"/><path class="cls-14" d="M223,453.07c-5-4.94-6.64.78-8.72,2.22,2.07,1.61,3.65,7.56,8.72,2.44-5.06,5.13.87,6.59,2.34,8.63,1.51-2.1,7.18-3.65,2.32-8.63,4.86,5,6.56-.85,8.7-2.45-2.31-1.29-3.82-7.19-8.7-2.21,4.88-5-.77-6.56-2.32-8.63C224,446.6,218.07,448.13,223,453.07Zm2.34-.09a2.42,2.42,0,1,1-2.42,2.42A2.42,2.42,0,0,1,225.37,453Z"/><path class="cls-15" d="M220.07,450.17c-5.39-1.57-6.78,2.85-10.05,5.12,3.26,2.54,4.91,6.91,9.94,5.54-1.44,5.23,3.08,6.63,5.4,9.85,2.38-3.31,6.83-4.82,5.18-10,5.34,1.53,6.8-2.88,10.17-5.4-3.64-2-5-6.87-10.16-5.15,1.43-5.25-2.74-6.75-5.19-10C223.21,443.52,218.46,444.85,220.07,450.17Zm5.29-5.73c1.55,2.07,7.2,3.65,2.32,8.63,4.88-5,6.39.92,8.7,2.21-2.14,1.6-3.84,7.43-8.7,2.45,4.86,5-.82,6.54-2.32,8.63-1.47-2-7.4-3.51-2.34-8.63-5.06,5.13-6.65-.82-8.72-2.44,2.08-1.44,3.77-7.16,8.72-2.22C218.07,448.13,224,446.6,225.36,444.44Z"/><circle class="cls-16" cx="225.37" cy="455.4" r="2.42"/><path class="cls-17" d="M87.93,339.68v89.26H76.71V356.37L47.36,394.89,18,356.37v72.57H6.74V339.68h12l28.66,37.53L76,339.68Z"/><path class="cls-18" d="M130.29,367.6a30.9,30.9,0,0,1,22.83,9.3,31,31,0,0,1,0,44.2,30.85,30.85,0,0,1-22.83,9.34,31,31,0,0,1-22.79-9.34,30.82,30.82,0,0,1,0-44.2A31.06,31.06,0,0,1,130.29,367.6Zm-14.51,16.12A20.93,20.93,0,0,0,109.64,399a20.64,20.64,0,0,0,6.14,15.2,20.18,20.18,0,0,0,29,0A20.58,20.58,0,0,0,151,399a20.87,20.87,0,0,0-6.18-15.32,20.05,20.05,0,0,0-29,0Z"/><path class="cls-19" d="M199,380.69q-7.69,1.18-11.91,6.11a18.36,18.36,0,0,0-4.22,12.37v29.77H171.61v-56.7h11.23v8.07q2.48-6.64,10.67-9.24Z"/><path class="cls-20" d="M268.19,349.42v79.52H257V349.42H235.68v-9.74h53.78v9.74Z"/><path class="cls-21" d="M297.28,339.68h11.23v32.56q2.85-3.09,11.79-3.1,10.73,0,17.31,6.58a22.31,22.31,0,0,1,6.7,16.07v37.16H333.13V392.28a12.84,12.84,0,0,0-3.91-9.58,12.45,12.45,0,0,0-8.93-3.81,12.3,12.3,0,0,0-8.75,3.6,14.07,14.07,0,0,0-3,4.15v42.31H297.28Z"/><path class="cls-22" d="M417.68,428.94H406.45V419q-6.64,11.41-20.22,11.41a31,31,0,0,1-22.8-9.34,30.83,30.83,0,0,1,0-44.2,31.07,31.07,0,0,1,22.8-9.3q13.59,0,20.22,11.29v-6.64h11.23Zm-11.23-25.43v-9.05a21.17,21.17,0,0,0-20.22-16.93,19.77,19.77,0,0,0-14.52,6.2A20.93,20.93,0,0,0,365.58,399a20.63,20.63,0,0,0,6.14,15.2,20.16,20.16,0,0,0,29.09-.12A20.07,20.07,0,0,0,406.45,403.51Z"/><path class="cls-23" d="M441.78,356.09A6.74,6.74,0,0,1,444,361a6.86,6.86,0,0,1-2.26,5.05,8.53,8.53,0,0,1-11.44,0A6.9,6.9,0,0,1,428.1,361a6.77,6.77,0,0,1,2.24-4.93,8.53,8.53,0,0,1,11.44,0Zm-.15,16.16v56.7H430.45v-56.7Z"/></svg>